<?xml version="1.0" encoding="UTF-8"?>
<!DOCTYPE svg PUBLIC "-//W3C//DTD SVG 1.1//EN" "http://www.w3.org/Graphics/SVG/1.1/DTD/svg11.dtd">
<!-- Creator: CorelDRAW X7 -->
<svg xmlns="http://www.w3.org/2000/svg" xml:space="preserve" width="46px" height="46px" version="1.1" style="shape-rendering:geometricPrecision; text-rendering:geometricPrecision; image-rendering:optimizeQuality; fill-rule:evenodd; clip-rule:evenodd"
viewBox="0 0 46 46"
 xmlns:xlink="http://www.w3.org/1999/xlink">
 <defs>
  <style type="text/css">
   <![CDATA[
    .fil0 {fill:#385C8E}
   ]]>
  </style>
 </defs>
 <g id="Layer_x0020_1">
  <metadata id="CorelCorpID_0Corel-Layer"/>
  <g id="_316267776">
   <path class="fil0" d="M10 27l6 0 0 23c0,1 0,1 1,1l9 0c1,0 1,0 1,-1l0 -23 7 0c0,0 0,0 1,0l1 -9c0,0 -1,0 -1,-1 0,0 0,0 0,0l-8 0 0 -5c0,-2 1,-3 3,-3 0,0 5,0 5,0 0,0 1,0 1,0l0 -8c0,-1 -1,-1 -1,-1l-7 0c0,0 0,0 0,0 -1,0 -6,0 -9,3 -3,3 -3,7 -3,8l0 6 -6 0c0,0 0,1 0,1l0 8c0,1 0,1 0,1z"/>
   <g>
   </g>
   <g>
   </g>
   <g>
   </g>
   <g>
   </g>
   <g>
   </g>
   <g>
   </g>
   <g>
   </g>
   <g>
   </g>
   <g>
   </g>
   <g>
   </g>
   <g>
   </g>
   <g>
   </g>
   <g>
   </g>
   <g>
   </g>
   <g>
   </g>
  </g>
 </g>
</svg>
