<?xml version="1.0" encoding="UTF-8"?>
<!DOCTYPE svg PUBLIC "-//W3C//DTD SVG 1.1//EN" "http://www.w3.org/Graphics/SVG/1.1/DTD/svg11.dtd">
<!-- Creator: CorelDRAW X7 -->
<svg xmlns="http://www.w3.org/2000/svg" xml:space="preserve" width="46px" height="46px" version="1.1" style="shape-rendering:geometricPrecision; text-rendering:geometricPrecision; image-rendering:optimizeQuality; fill-rule:evenodd; clip-rule:evenodd"
viewBox="0 0 46 46"
 xmlns:xlink="http://www.w3.org/1999/xlink">
 <defs>
  <style type="text/css">
   <![CDATA[
    .fil0 {fill:#F34A38}
   ]]>
  </style>
 </defs>
 <g id="Layer_x0020_1">
  <metadata id="CorelCorpID_0Corel-Layer"/>
  <g id="_317721168">
   <g>
    <path class="fil0" d="M21 31l7 0c-1,3 -5,6 -9,6 -5,0 -9,-4 -9,-9 0,-5 4,-10 9,-10 3,0 5,1 6,3 1,0 1,0 2,0l2 -3c1,0 1,-1 0,-1 -2,-3 -6,-4 -9,-4 -9,0 -15,6 -15,14 -1,9 6,15 14,15 8,0 15,-6 15,-14 0,0 0,-3 0,-3l-13 0c-1,0 -1,0 -1,1l0 4c0,0 0,1 1,1z"/>
    <path class="fil0" d="M46 25l0 -3c0,-1 0,-1 -1,-1l-3 0c0,0 -1,0 -1,1l0 3 -3 0c-1,0 -1,1 -1,1l0 3c0,1 0,1 1,1l3 0 0 3c0,1 1,1 1,1l3 0c1,0 1,0 1,-1l0 -3 4 0c0,0 1,0 1,-1l0 -3c0,0 -1,-1 -1,-1l-4 0 0 0z"/>
   </g>
   <g>
   </g>
   <g>
   </g>
   <g>
   </g>
   <g>
   </g>
   <g>
   </g>
   <g>
   </g>
   <g>
   </g>
   <g>
   </g>
   <g>
   </g>
   <g>
   </g>
   <g>
   </g>
   <g>
   </g>
   <g>
   </g>
   <g>
   </g>
   <g>
   </g>
  </g>
 </g>
</svg>
